<svg xmlns="http://www.w3.org/2000/svg" width="40" height="40" viewBox="0 0 40 40">
  <g fill="none" fill-rule="evenodd">
    <circle cx="20" cy="20" r="20" fill="#F9818E"/>
    <path fill="#FFF" fill-rule="nonzero" d="M25.057 15H14.944C12.207 15 10 17.207 10 19.944v6.112C10 28.793 12.207 31 14.944 31h10.113c2.737 0 4.943-2.207 4.943-4.944v-6.112C30 17.207 27.794 15 25.057 15ZM13.45 20.48l3.976 3.582A2.193 2.193 0 0 0 20 24.99c.98 0 1.913-.43 2.573-1.178l3.976-3.582c.316-.285.483-.686.483-1.103v-.028c0-.823-.667-1.49-1.49-1.49-.412 0-.805.166-1.09.46l-2.957 2.663a2.193 2.193 0 0 0-2.992 0l-2.956-2.663a1.491 1.491 0 0 0-1.09-.46c-.823 0-1.49.667-1.49 1.49v.028c0 .417.167.818.483 1.103Z"/>
  </g>
</svg>